HIERARCHY
ROOT Hips
{
	OFFSET 0.000000 0.000000 0.000000
	CHANNELS 6 Xposition Yposition Zposition Zrotation Xrotation Yrotation
	JOINT Spine
	{
		OFFSET 0.146975 -0.472929 0.035833
		CHANNELS 3 Zrotation Xrotation Yrotation
		JOINT Spine1
		{
			OFFSET -0.309531 -0.042403 -0.059657
			CHANNELS 3 Zrotation Xrotation Yrotation
			JOINT Spine2
			{
				OFFSET 0.000000 0.000000 0.000000
				CHANNELS 3 Zrotation Xrotation Yrotation
				JOINT Neck
				{
					OFFSET 0.309531 0.042403 0.059657
					CHANNELS 3 Zrotation Xrotation Yrotation
					JOINT Head
					{
						OFFSET -0.090233 -0.100944 -0.256558
						CHANNELS 3 Zrotation Xrotation Yrotation
						End Site
						{
							OFFSET 0.00 0.00 0.00
						}
					}
				}
				JOINT LeftShoulder
				{
					OFFSET 0.353124 0.124228 0.024586
					CHANNELS 3 Zrotation Xrotation Yrotation
					JOINT LeftArm
					{
						OFFSET 0.043593 0.081825 -0.035071
						CHANNELS 3 Zrotation Xrotation Yrotation
						JOINT LeftForeArm
						{
							OFFSET 0.032492 -0.029651 -0.155948
							CHANNELS 3 Zrotation Xrotation Yrotation
							JOINT LeftHand
							{
								OFFSET -0.021470 -0.052749 -0.032911
								CHANNELS 3 Zrotation Xrotation Yrotation
								End Site
								{
									OFFSET 0.00 0.00 0.00
								}
							}
						}
					}
				}
				JOINT RightShoulder
				{
					OFFSET 0.035287 0.126437 -0.074825
					CHANNELS 3 Zrotation Xrotation Yrotation
					JOINT RightArm
					{
						OFFSET 0.035287 0.126437 -0.074825
						CHANNELS 3 Zrotation Xrotation Yrotation
						JOINT RightForeArm
						{
							OFFSET 0.145102 -0.126129 -0.148233
							CHANNELS 3 Zrotation Xrotation Yrotation
							JOINT RightHand
							{
								OFFSET 0.076335 -0.120753 -0.057803
								CHANNELS 3 Zrotation Xrotation Yrotation
								End Site
								{
									OFFSET 0.00 0.00 0.00
								}
							}
						}
					}
				}
			}
		}
	}
	JOINT LeftUpLeg
	{
		OFFSET 0.099047 -0.003633 0.033567
		CHANNELS 3 Zrotation Xrotation Yrotation
		JOINT LeftLeg
		{
			OFFSET 0.048083 0.420897 -0.021121
			CHANNELS 3 Zrotation Xrotation Yrotation
			JOINT LeftFoot
			{
				OFFSET 0.039758 0.297667 0.231675
				CHANNELS 3 Zrotation Xrotation Yrotation
				JOINT LeftToe
				{
					OFFSET 0.003017 0.092631 -0.006732
					CHANNELS 3 Zrotation Xrotation Yrotation
					End Site
					{
						OFFSET 0.00 0.00 0.00
					}
				}
			}
		}
	}
	JOINT RightUpLeg
	{
		OFFSET -0.099047 0.003633 -0.033567
		CHANNELS 3 Zrotation Xrotation Yrotation
		JOINT RightLeg
		{
			OFFSET 0.024451 0.346831 0.039411
			CHANNELS 3 Zrotation Xrotation Yrotation
			JOINT RightFoot
			{
				OFFSET -0.001914 0.323345 0.275335
				CHANNELS 3 Zrotation Xrotation Yrotation
				JOINT RightToe
				{
					OFFSET -0.056739 0.057264 -0.062683
					CHANNELS 3 Zrotation Xrotation Yrotation
					End Site
					{
						OFFSET 0.00 0.00 0.00
					}
				}
			}
		}
	}
}
MOTION
Frames: 16
Frame Time: 0.033333
0.000968 -0.001683 0.000597 0.000000 -0.246766 159.843818 0.000000 32.537123 -109.653317 0.000000 0.000000 0.000000 0.000000 -12.627815 63.016552 0.000000 72.031461 -175.816357 0.000000 0.000000 0.000000 0.000000 26.365675 0.893392 0.000000 81.174649 80.464898 0.000000 25.652373 -162.893480 0.000000 0.000000 0.000000 0.000000 17.387475 65.341247 0.000000 -33.401727 110.900789 0.000000 15.015328 131.949780 0.000000 0.000000 0.000000 0.000000 -0.975432 9.417378 0.000000 -34.582483 8.447582 0.000000 -8.618801 9.107878 0.000000 0.000000 0.000000 0.000000 -19.186985 -8.927181 0.000000 -40.593715 -18.554254 0.000000 32.164018 -47.194925 0.000000 0.000000 0.000000
0.000909 -0.001756 0.000622 0.000000 -6.247919 160.187829 0.000000 43.566131 -113.955365 0.000000 0.000000 0.000000 0.000000 -21.401819 63.527417 0.000000 75.280875 173.318943 0.000000 0.000000 0.000000 0.000000 10.226002 9.801880 0.000000 59.932909 140.638052 0.000000 10.559866 -164.324761 0.000000 0.000000 0.000000 0.000000 17.634496 71.610587 0.000000 -23.802678 108.867777 0.000000 18.302724 130.771156 0.000000 0.000000 0.000000 0.000000 0.513781 13.223673 0.000000 -33.760523 6.062524 0.000000 -8.561253 6.949071 0.000000 0.000000 0.000000 0.000000 -17.450802 -8.331114 0.000000 -40.962239 -19.075539 0.000000 36.133048 -37.359321 0.000000 0.000000 0.000000
0.000919 -0.001803 0.000578 0.000000 -5.984248 159.680864 0.000000 44.330018 -118.055384 0.000000 0.000000 0.000000 0.000000 -21.209540 61.934939 0.000000 73.913504 171.735870 0.000000 0.000000 0.000000 0.000000 11.611238 10.591192 0.000000 46.801290 164.057373 0.000000 21.231097 -165.420355 0.000000 0.000000 0.000000 0.000000 18.821181 74.118208 0.000000 -25.615588 109.642912 0.000000 22.433704 128.060026 0.000000 0.000000 0.000000 0.000000 5.745124 16.445081 0.000000 -30.365189 3.823936 0.000000 -14.730687 6.717468 0.000000 0.000000 0.000000 0.000000 -17.933476 -7.616615 0.000000 -41.319980 -20.237338 0.000000 38.776528 -31.618743 0.000000 0.000000 0.000000
0.000945 -0.001845 0.000571 0.000000 -5.836575 159.747644 0.000000 43.783503 -118.118148 0.000000 0.000000 0.000000 0.000000 -21.393738 62.378986 0.000000 73.518828 174.806926 0.000000 0.000000 0.000000 0.000000 15.023363 10.927615 0.000000 50.066094 167.693769 0.000000 14.650850 -166.953407 0.000000 0.000000 0.000000 0.000000 16.934060 74.354015 0.000000 -20.227064 109.866021 0.000000 19.737763 130.096547 0.000000 0.000000 0.000000 0.000000 5.345339 17.198613 0.000000 -32.372708 3.861506 0.000000 -17.101499 6.569403 0.000000 0.000000 0.000000 0.000000 -17.931643 -6.739933 0.000000 -41.617374 -21.361616 0.000000 42.077850 -29.414346 0.000000 0.000000 0.000000
0.000948 -0.001876 0.000606 0.000000 -6.412526 160.015454 0.000000 45.000745 -118.655923 0.000000 0.000000 0.000000 0.000000 -22.800891 61.819478 0.000000 73.887111 172.155166 0.000000 0.000000 0.000000 0.000000 9.370041 8.864811 0.000000 43.520353 171.521963 0.000000 7.295546 -164.326958 0.000000 0.000000 0.000000 0.000000 16.802018 73.614585 0.000000 -17.849455 108.763529 0.000000 18.573234 129.851230 0.000000 0.000000 0.000000 0.000000 7.166177 18.376002 0.000000 -32.639971 3.629134 0.000000 -21.679884 6.769116 0.000000 0.000000 0.000000 0.000000 -16.434496 -6.514128 0.000000 -42.230726 -21.733868 0.000000 41.429717 -27.691300 0.000000 0.000000 0.000000
0.000942 -0.001887 0.000666 0.000000 -6.127154 160.047792 0.000000 44.155730 -118.453609 0.000000 0.000000 0.000000 0.000000 -21.849650 61.936005 0.000000 73.834498 173.294754 0.000000 0.000000 0.000000 0.000000 11.982610 9.256797 0.000000 49.999724 169.972083 0.000000 11.075546 -164.336008 0.000000 0.000000 0.000000 0.000000 17.352223 73.724731 0.000000 -16.290914 109.753094 0.000000 17.729897 129.715598 0.000000 0.000000 0.000000 0.000000 11.130651 18.923788 0.000000 -32.028078 3.642642 0.000000 -16.696634 5.034001 0.000000 0.000000 0.000000 0.000000 -15.842204 -6.605345 0.000000 -42.511700 -21.631028 0.000000 40.089162 -28.428207 0.000000 0.000000 0.000000
0.000769 -0.001787 0.000889 0.000000 -2.770491 159.611564 0.000000 35.869191 -114.082327 0.000000 0.000000 0.000000 0.000000 -15.033919 53.769138 0.000000 72.281085 -165.008751 0.000000 0.000000 0.000000 0.000000 14.416138 4.096677 0.000000 73.210293 43.550741 0.000000 29.356134 -158.736597 0.000000 0.000000 0.000000 0.000000 19.808898 46.795509 0.000000 -2.793936 108.169596 0.000000 17.820242 129.737201 0.000000 0.000000 0.000000 0.000000 9.569842 17.941452 0.000000 -38.198155 4.026236 0.000000 -8.320860 7.046691 0.000000 0.000000 0.000000 0.000000 -15.259366 -8.127346 0.000000 -42.006756 -19.159992 0.000000 48.246661 -34.000291 0.000000 0.000000 0.000000
0.000890 -0.001767 0.001127 0.000000 -1.643375 160.079787 0.000000 25.491575 -106.388111 0.000000 0.000000 0.000000 0.000000 -7.820889 53.052413 0.000000 72.580010 -152.457079 0.000000 0.000000 0.000000 0.000000 18.677897 17.725348 0.000000 75.827344 -15.611300 0.000000 36.794581 -143.058846 0.000000 0.000000 0.000000 0.000000 20.981051 24.754313 0.000000 4.254359 113.702597 0.000000 18.566502 139.812344 0.000000 0.000000 0.000000 0.000000 7.389252 15.672836 0.000000 -41.208431 5.523559 0.000000 -5.515638 8.296697 0.000000 0.000000 0.000000 0.000000 -12.627911 -9.496296 0.000000 -40.222539 -18.490561 0.000000 47.894338 -36.127014 0.000000 0.000000 0.000000
0.000928 -0.001736 0.001267 0.000000 0.088666 159.851223 0.000000 17.036125 -103.651378 0.000000 0.000000 0.000000 0.000000 -1.059937 52.376613 0.000000 69.052970 -148.576573 0.000000 0.000000 0.000000 0.000000 23.686097 33.718265 0.000000 81.273979 -174.541827 0.000000 20.835173 -149.508350 0.000000 0.000000 0.000000 0.000000 22.865274 8.510729 0.000000 12.874014 106.243777 0.000000 17.308736 134.233027 0.000000 0.000000 0.000000 0.000000 3.336671 13.532566 0.000000 -43.492406 6.272604 0.000000 -2.567371 12.257340 0.000000 0.000000 0.000000 0.000000 -11.646550 -9.620421 0.000000 -39.577056 -17.579800 0.000000 49.529292 -36.441448 0.000000 0.000000 0.000000
0.000993 -0.001671 0.001619 0.000000 0.792683 159.601701 0.000000 12.512047 -100.622006 0.000000 0.000000 0.000000 0.000000 2.141705 53.121616 0.000000 68.925907 -142.579774 0.000000 0.000000 0.000000 0.000000 19.855211 42.975874 0.000000 68.034121 111.816701 0.000000 35.805258 -161.267191 0.000000 0.000000 0.000000 0.000000 23.354065 -0.849985 0.000000 38.145301 101.796990 0.000000 22.889066 130.732158 0.000000 0.000000 0.000000 0.000000 3.076807 12.682926 0.000000 -43.020894 3.248495 0.000000 -1.113558 13.884323 0.000000 0.000000 0.000000 0.000000 -7.674262 -10.927774 0.000000 -40.037353 -15.390358 0.000000 48.158565 -37.341337 0.000000 0.000000 0.000000
0.001041 -0.001610 0.001987 0.000000 1.338476 159.149698 0.000000 8.621388 -96.725627 0.000000 0.000000 0.000000 0.000000 5.893490 56.655379 0.000000 68.950885 -135.060975 0.000000 0.000000 0.000000 0.000000 21.359747 60.360227 0.000000 53.200160 99.255691 0.000000 46.962329 178.164887 0.000000 0.000000 0.000000 0.000000 24.457424 -6.605175 0.000000 50.033716 103.458574 0.000000 25.230850 133.338216 0.000000 0.000000 0.000000 0.000000 8.056174 12.643635 0.000000 -43.440277 -0.015140 0.000000 6.589894 12.370020 0.000000 0.000000 0.000000 0.000000 -5.716981 -11.301018 0.000000 -38.584094 -15.098901 0.000000 49.465027 -38.971738 0.000000 0.000000 0.000000
0.001012 -0.001546 0.002244 0.000000 4.750038 159.275647 0.000000 4.104804 -94.056933 0.000000 0.000000 0.000000 0.000000 10.365812 60.238822 0.000000 70.058954 -128.547941 0.000000 0.000000 0.000000 0.000000 9.264088 78.864665 0.000000 22.084272 91.693426 0.000000 42.687030 141.797145 0.000000 0.000000 0.000000 0.000000 27.969092 -11.686492 0.000000 58.707249 95.796757 0.000000 26.362285 131.094190 0.000000 0.000000 0.000000 0.000000 7.236702 12.221741 0.000000 -43.064518 -2.868672 0.000000 7.137186 10.701848 0.000000 0.000000 0.000000 0.000000 -3.106028 -11.366526 0.000000 -37.356263 -15.462590 0.000000 50.758938 -41.916060 0.000000 0.000000 0.000000
0.001006 -0.001517 0.002269 0.000000 7.808179 159.115762 0.000000 2.003387 -92.825862 0.000000 0.000000 0.000000 0.000000 12.261173 62.635880 0.000000 70.530641 -123.269456 0.000000 0.000000 0.000000 0.000000 0.164652 87.228568 0.000000 2.681618 99.512878 0.000000 21.643511 140.914986 0.000000 0.000000 0.000000 0.000000 30.410417 -11.709270 0.000000 60.576951 94.305147 0.000000 26.189256 132.035725 0.000000 0.000000 0.000000 0.000000 2.518935 11.181157 0.000000 -44.136978 -5.325521 0.000000 3.825140 14.591359 0.000000 0.000000 0.000000 0.000000 -1.727601 -11.971533 0.000000 -37.823428 -15.732758 0.000000 46.625380 -45.216241 0.000000 0.000000 0.000000
0.000989 -0.001417 0.002283 0.000000 6.044688 158.911471 0.000000 4.155225 -92.396794 0.000000 0.000000 0.000000 0.000000 10.580605 62.294479 0.000000 70.814811 -120.598706 0.000000 0.000000 0.000000 0.000000 -0.062961 81.550033 0.000000 8.624248 101.678385 0.000000 24.866384 149.848293 0.000000 0.000000 0.000000 0.000000 30.614467 -12.399851 0.000000 57.530322 95.273832 0.000000 26.483728 133.075240 0.000000 0.000000 0.000000 0.000000 2.178657 10.444075 0.000000 -43.727005 -6.947799 0.000000 2.930640 12.828882 0.000000 0.000000 0.000000 0.000000 -1.845705 -13.167448 0.000000 -38.555389 -16.682562 0.000000 44.142997 -45.191831 0.000000 0.000000 0.000000
0.001050 -0.001394 0.002272 0.000000 5.527366 159.162845 0.000000 2.968010 -91.079839 0.000000 0.000000 0.000000 0.000000 11.789092 62.547139 0.000000 70.080084 -121.460799 0.000000 0.000000 0.000000 0.000000 6.139377 71.283206 0.000000 45.087929 101.560053 0.000000 40.812215 157.229898 0.000000 0.000000 0.000000 0.000000 30.112425 -10.009735 0.000000 57.385017 107.275978 0.000000 26.998670 135.883719 0.000000 0.000000 0.000000 0.000000 6.706769 10.395894 0.000000 -43.915078 -8.787667 0.000000 -3.066649 12.240220 0.000000 0.000000 0.000000 0.000000 -2.127401 -14.803718 0.000000 -39.058806 -17.411759 0.000000 45.816076 -42.442115 0.000000 0.000000 0.000000
0.001050 -0.001360 0.002239 0.000000 4.604386 159.130770 0.000000 3.586615 -91.717550 0.000000 0.000000 0.000000 0.000000 10.461735 60.535116 0.000000 70.034053 -125.598701 0.000000 0.000000 0.000000 0.000000 9.083475 60.218264 0.000000 64.607930 93.441851 0.000000 38.109843 -146.728255 0.000000 0.000000 0.000000 0.000000 27.778197 -9.257039 0.000000 54.511037 111.132074 0.000000 25.710189 136.061936 0.000000 0.000000 0.000000 0.000000 8.138853 10.083978 0.000000 -42.363711 -11.646285 0.000000 -2.152755 14.427458 0.000000 0.000000 0.000000 0.000000 -2.254701 -15.870966 0.000000 -39.016147 -17.998617 0.000000 45.283756 -42.476748 0.000000 0.000000 0.000000
